<?xml version="1.0" encoding="utf-8"?>
<!-- Generator: Adobe Illustrator 24.1.2, SVG Export Plug-In . SVG Version: 6.00 Build 0)  -->
<svg version="1.1" id="Layer_1" xmlns="http://www.w3.org/2000/svg" xmlns:xlink="http://www.w3.org/1999/xlink" x="0px" y="0px"
	 viewBox="0 0 108.3 102.7" style="enable-background:new 0 0 108.3 102.7;" xml:space="preserve">
<style type="text/css">
	.st0{fill:#41E0FD;}
</style>
<g>
	<path id="_Group_" class="st0" d="M39.2,51.1c0.8-1.6,1.6-3.3,2.5-4.9l0,0l0.9-1.8l1.4-2.3l0,0c0.5-0.9,1-1.7,1.6-2.6l0.9-1.5
		c1.2-2.1,2.2-3.6,3.8-5.7c0.8-1.2,1.7-2.2,2.9-3.8l0,0l0.1-0.1l0,0c0.5-0.7,1-1.3,1.6-1.9l0,0l0,0c1.2-1.5,2.4-3,3.6-4.4l0.5-0.6
		V13h-0.9c-0.5-0.4-0.9-0.9-1.4-1.3c-3.8-3.4-7.6-6-11.3-7.9C41.6,1.9,38.1,0.9,35,0.9c-2.2,0-4.2,0.5-5.9,1.5
		c-1.6,0.9-3,2.3-4.1,4.2c-1,1.7-1.7,3.8-2.2,6.2c-0.9,4.6-0.7,10.4,0.6,16.7c0.2,0.8,0.3,1.6,0.5,2.4c-1,0.3-1.9,0.6-2.9,0.9
		c-6,2.1-10.9,4.8-14.4,7.9c-1.8,1.6-3.2,3.3-4.1,5c-1,1.8-1.5,3.7-1.5,5.6c0,3.8,2.1,7.5,6,11c3.7,3.2,8.9,6.1,15.1,8.2
		c0.6,0.2,1.2,0.4,1.8,0.6c-0.2,0.9-0.4,1.8-0.6,2.7c-1.2,6.2-1.3,11.9-0.4,16.4c0.5,2.3,1.2,4.4,2.2,6.1c1.1,1.8,2.4,3.2,4.1,4.1
		c1.7,1,3.7,1.5,6,1.5c3.1,0,6.5-0.9,10.2-2.7c3.6-1.8,7.3-4.3,11-7.5c0.6-0.5,1.2-1,1.7-1.6H59v-8.7l-0.3-0.4l-0.2-0.2l-4-4.9
		L52.3,73c-1.1-1.4-2.9-3.9-5-7.2c-1.7-2.6-2.9-4.7-3.5-5.7l-0.1-0.1c-1-1.8-1.8-3.2-2.4-4.3c-0.8-1.4-1.5-2.9-2.2-4.4L39.2,51.1
		L39.2,51.1z M35.1,42.5c-0.7-1.7-1.3-3.5-1.9-5.1c1.7-0.4,3.5-0.7,5.4-1c-0.6,1-1.2,2-1.8,3S35.7,41.4,35.1,42.5z M33.2,65.6
		c0.6-1.7,1.2-3.5,1.9-5.3c0.6,1,1.1,2.1,1.7,3.1c0.6,1.1,1.3,2.1,1.9,3.2C36.8,66.2,35,65.9,33.2,65.6L33.2,65.6z M30.1,15
		c0.4-3.1,1.5-5.3,2.8-6.1c0.5-0.3,1.3-0.5,2.1-0.5c1.9,0,4.4,0.8,7.2,2.2c3,1.5,6.3,3.9,9.5,6.7c0.2,0.2,0.4,0.4,0.6,0.5
		c-2.8,3.1-5.5,6.5-8.2,10.2c-4.5,0.4-8.8,1.1-12.9,2c-0.1-0.6-0.3-1.3-0.4-1.9l0-0.1C29.8,23.1,29.6,18.6,30.1,15L30.1,15z
		 M30.7,51.3c-1.9,4.2-3.5,8.4-4.8,12.4c-0.5-0.1-0.9-0.3-1.3-0.4c-5.2-1.8-9.4-4-12.4-6.6c-2.3-1.9-3.6-4-3.6-5.5
		c0-1.5,1.4-3.5,3.7-5.4c2.8-2.2,6.7-4.3,11.3-5.9c0.8-0.3,1.6-0.5,2.4-0.8C27.2,43.1,28.8,47.2,30.7,51.3L30.7,51.3z M30.7,75.1
		c0.1-0.8,0.3-1.5,0.5-2.3c4,0.8,8.4,1.4,13,1.8c2.7,3.7,5.4,7.2,8.3,10.3c-0.3,0.3-0.7,0.6-1,0.9c-4.1,3.6-8.2,6.1-11.8,7.4l-0.1,0
		c-1.6,0.6-3.1,0.9-4.4,0.9c-0.9,0-1.7-0.2-2.2-0.5c-1.3-0.8-2.4-2.9-2.8-5.9C29.6,84.3,29.8,79.9,30.7,75.1L30.7,75.1z"/>
	<path class="st0" d="M104.5,55.4c-1.9-3.4-4.6-5.7-8.3-6.7c-0.1,0-0.1-0.1-0.1-0.1c0-0.1,0-0.1,0.1-0.1c2.7-1.5,4.8-3.7,6.3-6.4
		c1.5-2.8,2.2-6.1,2.2-10c0-6.4-1.6-11.2-4.9-14.4s-7.5-4.8-12.9-4.8H58c-0.1,0-0.1,0.1-0.1,0.1v76.8c0,0.1,0,0.1,0.1,0.1h27.3
		c3.8,0,7.2-0.6,10-1.7c2.8-1.1,5.1-2.6,6.9-4.5c1.8-1.9,3.1-4.2,3.9-6.8c0.8-2.6,1.3-5.4,1.3-8.5C107.4,63.3,106.4,58.9,104.5,55.4
		L104.5,55.4z M68.4,24c0-0.1,0-0.1,0.1-0.1h17c2.8,0,5,0.8,6.5,2.4c1.5,1.6,2.3,4.3,2.3,8.2c0,3.5-0.8,6.1-2.5,8s-3.8,2.8-6.3,2.8
		h-17c-0.1,0-0.1-0.1-0.1-0.1L68.4,24z M94.3,75.8c-1.7,2.1-4.2,3.2-7.4,3.2H68.5c-0.1,0-0.1-0.1-0.1-0.1V55c0-0.1,0.1-0.1,0.1-0.1
		h18.4c3.2,0,5.6,1,7.4,3.1c1.8,2.1,2.6,5,2.6,8.8C97,70.6,96.1,73.7,94.3,75.8L94.3,75.8z"/>
</g>
</svg>
